<?xml version="1.0" standalone="no"?>
<!DOCTYPE svg PUBLIC "-//W3C//DTD SVG 20010904//EN"
 "http://www.w3.org/TR/2001/REC-SVG-20010904/DTD/svg10.dtd">
<svg version="1.0" xmlns="http://www.w3.org/2000/svg"
 width="16.000000pt" height="16.000000pt" viewBox="0 0 16.000000 16.000000"
 preserveAspectRatio="xMidYMid meet">
<metadata>
Created by potrace 1.11, written by Peter Selinger 2001-2013
</metadata>
<g transform="translate(0.000000,16.000000) scale(0.003783,-0.003783)"
fill="#000000" stroke="none">
<path d="M2178 3631 c-17 -6 -110 -86 -261 -225 -128 -116 -124 -114 -122 -56
2 54 -17 109 -37 111 -130 11 -193 0 -204 -33 -3 -11 -6 -94 -5 -184 0 -123
-3 -167 -13 -176 -20 -19 -90 -83 -196 -178 -52 -47 -97 -87 -100 -90 -3 -3
-45 -41 -95 -85 -179 -158 -200 -182 -186 -199 10 -12 32 -16 91 -15 85 1 123
-14 134 -54 3 -12 6 -214 6 -449 l0 -428 -37 -1 c-21 0 -45 -2 -53 -3 -8 -2
-44 -6 -79 -10 -170 -18 -411 -87 -621 -178 -153 -67 -370 -184 -370 -201 0
-4 3 -6 8 -4 4 3 32 8 62 12 30 3 62 8 70 10 8 2 39 7 69 10 30 4 61 8 70 10
9 2 59 6 111 10 52 4 104 9 115 11 26 6 514 6 540 1 11 -3 56 -8 100 -11 44
-4 91 -9 105 -11 28 -4 99 -14 145 -21 39 -6 133 -23 165 -29 14 -3 45 -10 70
-15 25 -5 167 -38 315 -73 272 -66 385 -90 505 -107 69 -9 375 -7 425 4 309
68 500 150 780 333 146 96 239 165 400 296 125 102 155 130 110 102 -131 -82
-351 -197 -460 -242 -129 -53 -323 -111 -420 -127 -22 -4 -51 -9 -65 -12 l-25
-4 0 566 1 567 28 23 c26 23 55 29 133 24 73 -4 96 30 47 69 -21 16 -141 124
-214 191 -9 8 -54 49 -101 90 -46 41 -89 79 -95 85 -6 5 -44 39 -84 75 -40 36
-85 76 -100 90 -30 28 -66 60 -155 139 -73 66 -214 192 -229 206 -166 150
-200 178 -229 184 -18 5 -40 5 -49 2z"/>
<path d="M3679 1146 c-96 -65 -284 -166 -394 -211 -119 -49 -297 -99 -395
-111 -30 -3 -58 -8 -62 -10 -9 -6 -253 -5 -293 1 -16 2 -52 6 -80 10 -27 3
-63 8 -80 11 -35 6 -171 33 -200 39 -11 3 -29 7 -40 9 -11 2 -65 15 -120 29
-128 33 -408 95 -460 102 -22 4 -47 8 -56 11 -9 2 -34 7 -55 9 -22 3 -54 7
-71 10 -177 27 -297 36 -525 39 -191 3 -228 -8 -64 -18 55 -4 102 -8 105 -10
3 -2 29 -7 56 -10 28 -3 61 -8 75 -11 14 -2 50 -10 80 -16 151 -29 383 -99
630 -189 364 -133 550 -189 715 -214 104 -15 314 -13 395 4 278 60 530 206
800 467 47 45 83 83 80 83 -3 0 -21 -11 -41 -24z"/>
<path d="M628 1073 c6 -2 18 -2 25 0 6 3 1 5 -13 5 -14 0 -19 -2 -12 -5z"/>
</g>
</svg>
